<svg width="191" height="44" viewBox="0 0 191 44" fill="none" xmlns="http://www.w3.org/2000/svg">
<rect width="191" height="44" rx="10" fill="#009398"/>
<g filter="url(#filter0_d_1607_6)">
<path d="M15.71 15.34C15.91 15.3 16.1367 15.2733 16.39 15.26C16.65 15.2467 16.8667 15.24 17.04 15.24C17.2333 15.24 17.45 15.2467 17.69 15.26C17.9367 15.2733 18.17 15.3 18.39 15.34V29C18.17 29.04 17.9367 29.0667 17.69 29.08C17.45 29.0933 17.2333 29.1 17.04 29.1C16.8667 29.1 16.65 29.0933 16.39 29.08C16.1367 29.0667 15.91 29.04 15.71 29V15.34ZM21.7538 15.38C21.9671 15.3333 22.2371 15.3 22.5638 15.28C22.8971 15.2533 23.1571 15.24 23.3438 15.24C23.5304 15.24 23.7704 15.2467 24.0638 15.26C24.3571 15.2733 24.6438 15.3 24.9238 15.34L24.2338 18.42L24.0438 18.47C24.0838 18.99 24.1171 19.5733 24.1438 20.22C24.1771 20.8667 24.2038 21.5167 24.2238 22.17C24.2438 22.8167 24.2538 23.4033 24.2538 23.93V29C24.0338 29.04 23.8171 29.0667 23.6038 29.08C23.3904 29.0933 23.2004 29.1 23.0337 29.1C22.8671 29.1 22.6638 29.0933 22.4238 29.08C22.1904 29.0667 21.9671 29.04 21.7538 29V15.38ZM25.3138 21.25C25.0738 20.7433 24.8538 20.25 24.6538 19.77C24.4538 19.29 24.2738 18.8467 24.1138 18.44L22.8638 16.98L24.9238 15.34L28.5538 23.08C28.8071 23.6333 29.0438 24.17 29.2638 24.69C29.4838 25.2033 29.6771 25.6567 29.8438 26.05L31.1938 27.49L29.0038 29L25.3138 21.25ZM32.1938 15.35V28.96C31.9804 29.0067 31.7071 29.04 31.3738 29.06C31.0471 29.0867 30.7804 29.1 30.5738 29.1C30.3738 29.1 30.1338 29.0933 29.8538 29.08C29.5738 29.0667 29.2904 29.04 29.0038 29L29.7138 26.07L29.9238 26.02C29.8771 25.44 29.8371 24.8133 29.8038 24.14C29.7704 23.4667 29.7471 22.8133 29.7338 22.18C29.7204 21.5467 29.7138 21 29.7138 20.54V16.87C29.7138 16.2767 29.8271 15.8567 30.0538 15.61C30.2871 15.3567 30.6671 15.23 31.1938 15.23H32.0638L32.1938 15.35ZM34.1233 17.58C34.0833 17.38 34.0566 17.1833 34.0433 16.99C34.0299 16.7967 34.0233 16.6233 34.0233 16.47C34.0233 16.31 34.0299 16.1333 34.0433 15.94C34.0566 15.74 34.0833 15.54 34.1233 15.34H43.6833C43.7299 15.4867 43.7633 15.6533 43.7833 15.84C43.8099 16.0267 43.8233 16.2067 43.8233 16.38C43.8233 16.82 43.7066 17.13 43.4733 17.31C43.2399 17.49 42.8766 17.58 42.3833 17.58H41.4433C41.3099 17.58 41.1133 17.5767 40.8533 17.57C40.5933 17.5633 40.3899 17.56 40.2433 17.56H37.5533C37.4133 17.56 37.2099 17.5633 36.9433 17.57C36.6833 17.5767 36.4833 17.58 36.3433 17.58H34.1233ZM37.5533 19.04C37.5533 18.7667 37.5533 18.5233 37.5533 18.31C37.5599 18.09 37.5633 17.84 37.5633 17.56V16.46H40.2233V17.56C40.2233 17.84 40.2266 18.09 40.2333 18.31C40.2399 18.5233 40.2433 18.7667 40.2433 19.04V29C40.0166 29.04 39.7833 29.0667 39.5433 29.08C39.3033 29.0933 39.0899 29.1 38.9033 29.1C38.7033 29.1 38.4833 29.0933 38.2433 29.08C38.0033 29.0667 37.7733 29.04 37.5533 29V19.04ZM45.5328 15.47L45.6628 15.34H48.1628V17.54C48.1628 17.82 48.1661 18.06 48.1728 18.26C48.1795 18.46 48.1828 18.6967 48.1828 18.97V25.58C48.1828 25.8 48.1795 26.0033 48.1728 26.19C48.1661 26.37 48.1628 26.5767 48.1628 26.81V29.04H47.0728C46.5928 29.04 46.2161 28.8967 45.9428 28.61C45.6695 28.3233 45.5328 27.9333 45.5328 27.44V15.47ZM52.8728 21.02C52.9261 21.1867 52.9628 21.3767 52.9828 21.59C53.0095 21.7967 53.0228 21.9733 53.0228 22.12C53.0228 22.2733 53.0095 22.4533 52.9828 22.66C52.9628 22.86 52.9261 23.0467 52.8728 23.22H49.4828C49.3228 23.22 49.1061 23.22 48.8328 23.22C48.5595 23.2133 48.2795 23.21 47.9928 23.21C47.7061 23.2033 47.4595 23.1967 47.2528 23.19V21.05C47.4595 21.0433 47.7061 21.04 47.9928 21.04C48.2795 21.0333 48.5595 21.03 48.8328 21.03C49.1061 21.0233 49.3228 21.02 49.4828 21.02H52.8728ZM54.0128 15.34C54.0528 15.54 54.0761 15.73 54.0828 15.91C54.0895 16.0833 54.0928 16.2467 54.0928 16.4C54.0928 16.5533 54.0761 16.74 54.0428 16.96C54.0095 17.18 53.9561 17.3933 53.8828 17.6H49.4828C49.3228 17.6 49.1061 17.6 48.8328 17.6C48.5595 17.5933 48.2795 17.5867 47.9928 17.58C47.7061 17.5733 47.4595 17.5667 47.2528 17.56V15.34H54.0128ZM54.4528 26.78C54.4528 27.5467 54.3328 28.1167 54.0928 28.49C53.8595 28.8567 53.3928 29.04 52.6928 29.04H47.2528V26.87C47.6328 26.85 47.9995 26.83 48.3528 26.81C48.7128 26.79 49.1161 26.78 49.5628 26.78H54.4528ZM55.9295 15.76C56.1962 15.5733 56.4862 15.43 56.7995 15.33C57.1129 15.2233 57.4062 15.17 57.6795 15.17C58.0462 15.17 58.3562 15.2467 58.6095 15.4C58.8695 15.5467 59.1262 15.82 59.3795 16.22L67.0495 28.58C66.7829 28.7667 66.4929 28.91 66.1795 29.01C65.8729 29.1167 65.5795 29.17 65.2995 29.17C64.9329 29.17 64.6162 29.0933 64.3495 28.94C64.0895 28.7867 63.8329 28.5067 63.5795 28.1L55.9295 15.76ZM64.0495 15.34C64.1829 15.3067 64.3462 15.28 64.5395 15.26C64.7329 15.24 64.9395 15.23 65.1595 15.23C65.4262 15.23 65.6862 15.2533 65.9395 15.3C66.1929 15.3467 66.4029 15.4 66.5695 15.46L66.6395 15.61L62.4395 22.48L61.3495 23.69L58.1695 29C58.0362 29.0333 57.8695 29.06 57.6695 29.08C57.4695 29.1 57.2562 29.11 57.0295 29.11C56.7695 29.11 56.5129 29.0867 56.2595 29.04C56.0062 28.9933 55.7862 28.9367 55.5995 28.87L55.5295 28.71L60.1795 21.19L61.2695 19.98L64.0495 15.34ZM67.7339 24.71C67.6939 24.5367 67.6639 24.35 67.6439 24.15C67.6306 23.9433 67.6239 23.7733 67.6239 23.64C67.6239 23.5 67.6306 23.33 67.6439 23.13C67.6639 22.9233 67.6939 22.7333 67.7339 22.56H73.0439C73.0906 22.7333 73.1206 22.9233 73.1339 23.13C73.1472 23.33 73.1539 23.5 73.1539 23.64C73.1539 23.7733 73.1472 23.9433 73.1339 24.15C73.1206 24.35 73.0906 24.5367 73.0439 24.71H67.7339ZM76.3595 15.35C76.6462 15.3033 76.9629 15.2733 77.3095 15.26C77.6562 15.24 77.9429 15.23 78.1695 15.23C78.4029 15.23 78.6729 15.24 78.9795 15.26C79.2862 15.2733 79.5829 15.3033 79.8695 15.35L81.3995 20.9C81.4395 21.04 81.4929 21.2567 81.5595 21.55C81.6329 21.8433 81.7095 22.1667 81.7895 22.52C81.8695 22.8733 81.9429 23.2133 82.0095 23.54C82.0829 23.8667 82.1329 24.1267 82.1595 24.32H82.2895C82.3229 24.1267 82.3729 23.8667 82.4395 23.54C82.5129 23.2133 82.5895 22.8733 82.6695 22.52C82.7495 22.1667 82.8262 21.8433 82.8995 21.55C82.9729 21.2567 83.0262 21.04 83.0595 20.9L84.5895 15.35C84.8895 15.3033 85.1895 15.2733 85.4895 15.26C85.7895 15.24 86.0562 15.23 86.2895 15.23C86.5229 15.23 86.8095 15.24 87.1495 15.26C87.4895 15.2733 87.8062 15.3033 88.0995 15.35L89.1595 28.97C88.9662 29.0167 88.7429 29.05 88.4895 29.07C88.2429 29.0967 88.0129 29.11 87.7995 29.11C87.5929 29.11 87.3929 29.1033 87.1995 29.09C87.0062 29.0767 86.8095 29.0533 86.6095 29.02L86.2295 22.61C86.2095 22.19 86.1862 21.7233 86.1595 21.21C86.1395 20.69 86.1195 20.1733 86.0995 19.66C86.0862 19.1467 86.0762 18.6833 86.0695 18.27H85.9495L83.5995 26.95C83.3995 26.9833 83.1662 27.01 82.8995 27.03C82.6395 27.0433 82.4129 27.05 82.2195 27.05C82.0395 27.05 81.8162 27.0433 81.5495 27.03C81.2829 27.01 81.0495 26.9833 80.8495 26.95L78.5095 18.27H78.3895C78.3829 18.6833 78.3695 19.1467 78.3495 19.66C78.3362 20.1733 78.3195 20.69 78.2995 21.21C78.2795 21.7233 78.2562 22.19 78.2295 22.61L77.8395 29.02C77.6462 29.0533 77.4495 29.0767 77.2495 29.09C77.0495 29.1033 76.8495 29.11 76.6495 29.11C76.4362 29.11 76.2029 29.0967 75.9495 29.07C75.7029 29.05 75.4862 29.0167 75.2995 28.97L76.3595 15.35ZM95.1953 15.34C95.402 15.3067 95.6553 15.2833 95.9553 15.27C96.262 15.25 96.5253 15.24 96.7453 15.24C96.9586 15.24 97.2153 15.25 97.5153 15.27C97.822 15.2833 98.0753 15.31 98.2753 15.35L102.665 28.83C102.479 28.9367 102.242 29.0167 101.955 29.07C101.669 29.13 101.392 29.16 101.125 29.16C100.699 29.16 100.365 29.0633 100.125 28.87C99.892 28.67 99.692 28.2867 99.5253 27.72L97.7153 21.74C97.5486 21.1667 97.3653 20.5267 97.1653 19.82C96.972 19.1133 96.7986 18.4633 96.6453 17.87H96.5253C96.4586 18.2033 96.372 18.5733 96.2653 18.98C96.1653 19.38 96.0586 19.78 95.9453 20.18C95.8386 20.5733 95.742 20.9233 95.6553 21.23L93.2653 29.02C93.0986 29.06 92.9186 29.0867 92.7253 29.1C92.532 29.1133 92.3286 29.12 92.1153 29.12C91.902 29.12 91.672 29.1033 91.4253 29.07C91.1786 29.0367 90.9753 28.9933 90.8153 28.94L90.7253 28.8L95.1953 15.34ZM95.1853 25.93C95.1053 25.93 94.9886 25.93 94.8353 25.93C94.682 25.9233 94.5253 25.92 94.3653 25.92C94.212 25.9133 94.0953 25.91 94.0153 25.91H92.6653L93.4853 23.79H94.6753C94.7553 23.79 94.8653 23.79 95.0053 23.79C95.152 23.7833 95.2953 23.78 95.4353 23.78C95.582 23.7733 95.692 23.77 95.7653 23.77H97.4853C97.572 23.77 97.6853 23.7733 97.8253 23.78C97.9653 23.78 98.1086 23.7833 98.2553 23.79C98.402 23.79 98.5153 23.79 98.5953 23.79H99.8253L100.515 25.91H99.1653C99.0853 25.91 98.9653 25.9133 98.8053 25.92C98.652 25.92 98.4953 25.9233 98.3353 25.93C98.182 25.93 98.0653 25.93 97.9853 25.93H95.1853ZM114.025 19.47C114.025 20.0967 113.905 20.6567 113.665 21.15C113.432 21.6433 113.125 22.0567 112.745 22.39C112.365 22.7233 111.962 22.9667 111.535 23.12C111.888 23.2467 112.185 23.47 112.425 23.79C112.672 24.1033 112.868 24.47 113.015 24.89L113.755 26.89C113.882 27.2433 114.018 27.5367 114.165 27.77C114.318 28.0033 114.495 28.2 114.695 28.36C114.522 28.5933 114.265 28.7867 113.925 28.94C113.592 29.0867 113.248 29.16 112.895 29.16C112.408 29.16 112.052 29.0267 111.825 28.76C111.598 28.4933 111.392 28.0967 111.205 27.57L110.355 25.19C110.215 24.79 110.015 24.4533 109.755 24.18C109.495 23.9 109.078 23.76 108.505 23.76H106.195V21.72C106.468 21.7067 106.795 21.6933 107.175 21.68C107.562 21.66 107.935 21.6467 108.295 21.64C108.655 21.6333 108.932 21.63 109.125 21.63C109.705 21.63 110.148 21.5267 110.455 21.32C110.762 21.1067 110.975 20.8367 111.095 20.51C111.215 20.1767 111.275 19.83 111.275 19.47C111.275 19.09 111.215 18.7367 111.095 18.41C110.975 18.0833 110.762 17.8167 110.455 17.61C110.148 17.4033 109.705 17.3 109.125 17.3C108.885 17.3 108.598 17.3 108.265 17.3C107.932 17.2933 107.605 17.2867 107.285 17.28V29C107.072 29.04 106.842 29.0667 106.595 29.08C106.355 29.0933 106.138 29.1 105.945 29.1C105.778 29.1 105.568 29.0933 105.315 29.08C105.062 29.0667 104.832 29.04 104.625 29V15.45L104.765 15.31C105.565 15.2967 106.342 15.2833 107.095 15.27C107.855 15.25 108.595 15.24 109.315 15.24C110.242 15.24 111.058 15.3933 111.765 15.7C112.472 16.0067 113.025 16.4733 113.425 17.1C113.825 17.7267 114.025 18.5167 114.025 19.47ZM116.793 15.34C116.999 15.3 117.229 15.2733 117.483 15.26C117.743 15.2467 117.959 15.24 118.133 15.24C118.319 15.24 118.536 15.2467 118.783 15.26C119.036 15.2733 119.269 15.3 119.483 15.34V29C119.269 29.04 119.036 29.0667 118.783 29.08C118.536 29.0933 118.319 29.1 118.133 29.1C117.959 29.1 117.743 29.0933 117.483 29.08C117.229 29.0667 116.999 29.04 116.793 29V15.34ZM127.083 28.32C126.909 28.5867 126.653 28.7933 126.313 28.94C125.979 29.08 125.639 29.15 125.293 29.15C124.786 29.15 124.423 29.02 124.203 28.76C123.983 28.5 123.786 28.1067 123.613 27.58L122.703 24.96C122.463 24.2667 122.183 23.78 121.863 23.5C121.543 23.2133 121.116 23.07 120.583 23.07C120.329 23.07 119.993 23.0833 119.573 23.11C119.153 23.13 118.666 23.16 118.113 23.2V21.51H121.823C122.543 21.51 123.113 21.6133 123.533 21.82C123.959 22.0267 124.296 22.3133 124.543 22.68C124.789 23.0467 124.996 23.48 125.163 23.98L126.113 26.65C126.233 26.9833 126.339 27.2533 126.433 27.46C126.526 27.66 126.623 27.8233 126.723 27.95C126.829 28.0767 126.949 28.2 127.083 28.32ZM123.333 16.24C123.513 15.9067 123.699 15.66 123.893 15.5C124.086 15.3333 124.389 15.25 124.803 15.25C125.029 15.25 125.283 15.2567 125.563 15.27C125.849 15.2833 126.123 15.3033 126.383 15.33L126.543 15.53L123.833 20.38C123.493 21 123.063 21.49 122.543 21.85C122.023 22.2033 121.343 22.38 120.503 22.38H118.113V20.86C118.459 20.8467 118.823 20.8367 119.203 20.83C119.583 20.8233 119.943 20.8167 120.283 20.81C120.509 20.81 120.673 20.7667 120.773 20.68C120.873 20.5867 120.989 20.4233 121.123 20.19L123.333 16.24ZM128.97 15.47L129.1 15.34H131.6V17.54C131.6 17.82 131.604 18.06 131.61 18.26C131.617 18.46 131.62 18.6967 131.62 18.97V25.58C131.62 25.8 131.617 26.0033 131.61 26.19C131.604 26.37 131.6 26.5767 131.6 26.81V29.04H130.51C130.03 29.04 129.654 28.8967 129.38 28.61C129.107 28.3233 128.97 27.9333 128.97 27.44V15.47ZM136.31 21.02C136.364 21.1867 136.4 21.3767 136.42 21.59C136.447 21.7967 136.46 21.9733 136.46 22.12C136.46 22.2733 136.447 22.4533 136.42 22.66C136.4 22.86 136.364 23.0467 136.31 23.22H132.92C132.76 23.22 132.544 23.22 132.27 23.22C131.997 23.2133 131.717 23.21 131.43 23.21C131.144 23.2033 130.897 23.1967 130.69 23.19V21.05C130.897 21.0433 131.144 21.04 131.43 21.04C131.717 21.0333 131.997 21.03 132.27 21.03C132.544 21.0233 132.76 21.02 132.92 21.02H136.31ZM137.45 15.34C137.49 15.54 137.514 15.73 137.52 15.91C137.527 16.0833 137.53 16.2467 137.53 16.4C137.53 16.5533 137.514 16.74 137.48 16.96C137.447 17.18 137.394 17.3933 137.32 17.6H132.92C132.76 17.6 132.544 17.6 132.27 17.6C131.997 17.5933 131.717 17.5867 131.43 17.58C131.144 17.5733 130.897 17.5667 130.69 17.56V15.34H137.45ZM137.89 26.78C137.89 27.5467 137.77 28.1167 137.53 28.49C137.297 28.8567 136.83 29.04 136.13 29.04H130.69V26.87C131.07 26.85 131.437 26.83 131.79 26.81C132.15 26.79 132.554 26.78 133 26.78H137.89ZM138.967 17.58C138.927 17.38 138.9 17.1833 138.887 16.99C138.874 16.7967 138.867 16.6233 138.867 16.47C138.867 16.31 138.874 16.1333 138.887 15.94C138.9 15.74 138.927 15.54 138.967 15.34H148.527C148.574 15.4867 148.607 15.6533 148.627 15.84C148.654 16.0267 148.667 16.2067 148.667 16.38C148.667 16.82 148.55 17.13 148.317 17.31C148.084 17.49 147.72 17.58 147.227 17.58H146.287C146.154 17.58 145.957 17.5767 145.697 17.57C145.437 17.5633 145.234 17.56 145.087 17.56H142.397C142.257 17.56 142.054 17.5633 141.787 17.57C141.527 17.5767 141.327 17.58 141.187 17.58H138.967ZM142.397 19.04C142.397 18.7667 142.397 18.5233 142.397 18.31C142.404 18.09 142.407 17.84 142.407 17.56V16.46H145.067V17.56C145.067 17.84 145.07 18.09 145.077 18.31C145.084 18.5233 145.087 18.7667 145.087 19.04V29C144.86 29.04 144.627 29.0667 144.387 29.08C144.147 29.0933 143.934 29.1 143.747 29.1C143.547 29.1 143.327 29.0933 143.087 29.08C142.847 29.0667 142.617 29.04 142.397 29V19.04ZM148.265 27.77C148.265 27.65 148.282 27.4733 148.315 27.24C148.348 27.0067 148.402 26.8133 148.475 26.66C148.642 26.5667 148.855 26.49 149.115 26.43C149.382 26.37 149.638 26.34 149.885 26.34C150.112 26.34 150.358 26.37 150.625 26.43C150.898 26.49 151.118 26.5667 151.285 26.66C151.358 26.8133 151.412 27.0067 151.445 27.24C151.478 27.4733 151.495 27.65 151.495 27.77C151.495 27.89 151.478 28.0667 151.445 28.3C151.412 28.5333 151.358 28.7233 151.285 28.87C151.125 28.9767 150.908 29.0567 150.635 29.11C150.362 29.1633 150.112 29.19 149.885 29.19C149.638 29.19 149.382 29.1633 149.115 29.11C148.855 29.0567 148.642 28.9767 148.475 28.87C148.402 28.7233 148.348 28.5333 148.315 28.3C148.282 28.0667 148.265 27.89 148.265 27.77ZM164.231 24.08C164.231 25.1933 164.021 26.1367 163.601 26.91C163.181 27.6833 162.581 28.2733 161.801 28.68C161.021 29.08 160.085 29.28 158.991 29.28C157.898 29.28 156.961 29.08 156.181 28.68C155.401 28.2733 154.801 27.6833 154.381 26.91C153.961 26.1367 153.751 25.1933 153.751 24.08V15.36L153.891 15.23H154.891C155.411 15.23 155.798 15.3667 156.051 15.64C156.311 15.9067 156.441 16.3367 156.441 16.93V24.09C156.441 25.09 156.645 25.8467 157.051 26.36C157.465 26.8733 158.111 27.13 158.991 27.13C159.871 27.13 160.515 26.8733 160.921 26.36C161.335 25.8467 161.541 25.09 161.541 24.09V15.34C161.761 15.3 161.988 15.2733 162.221 15.26C162.461 15.2467 162.671 15.24 162.851 15.24C163.031 15.24 163.255 15.2467 163.521 15.26C163.788 15.2733 164.025 15.3 164.231 15.34V24.08ZM171.365 19.49C171.565 19.1967 171.815 18.8633 172.115 18.49C172.415 18.1167 172.695 17.77 172.955 17.45L172.895 17.39C172.695 17.4167 172.455 17.4433 172.175 17.47C171.902 17.49 171.615 17.5067 171.315 17.52C171.015 17.5267 170.732 17.5333 170.465 17.54C170.199 17.5467 169.975 17.55 169.795 17.55H166.765C166.725 17.39 166.695 17.2367 166.675 17.09C166.662 16.9433 166.655 16.7967 166.655 16.65C166.655 16.4167 166.672 16.1967 166.705 15.99C166.739 15.7833 166.785 15.5667 166.845 15.34H175.405C175.525 15.7533 175.609 16.0667 175.655 16.28C175.709 16.4933 175.742 16.6533 175.755 16.76C175.775 16.86 175.785 16.9467 175.785 17.02C175.785 17.1733 175.762 17.3333 175.715 17.5C175.669 17.6667 175.585 17.8367 175.465 18.01L170.735 24.8C170.535 25.0933 170.289 25.4267 169.995 25.8C169.709 26.1667 169.435 26.5033 169.175 26.81L169.235 26.87C169.662 26.83 170.129 26.8 170.635 26.78C171.142 26.7533 171.579 26.74 171.945 26.74H173.525C174.032 26.74 174.475 26.7 174.855 26.62C175.242 26.54 175.569 26.4367 175.835 26.31C175.882 26.4833 175.925 26.68 175.965 26.9C176.005 27.12 176.025 27.3367 176.025 27.55C176.025 28.0367 175.862 28.4 175.535 28.64C175.215 28.88 174.779 29 174.225 29H166.605C166.512 28.6067 166.442 28.3067 166.395 28.1C166.355 27.8867 166.329 27.73 166.315 27.63C166.302 27.5233 166.295 27.4333 166.295 27.36C166.295 27.1867 166.322 27.0067 166.375 26.82C166.429 26.6333 166.512 26.46 166.625 26.3L171.365 19.49Z" fill="white"/>
</g>
<defs>
<filter id="filter0_d_1607_6" x="5.71002" y="9.16998" width="180.315" height="34.11" filterUnits="userSpaceOnUse" color-interpolation-filters="sRGB">
<feFlood flood-opacity="0" result="BackgroundImageFix"/>
<feColorMatrix in="SourceAlpha" type="matrix" values="0 0 0 0 0 0 0 0 0 0 0 0 0 0 0 0 0 0 127 0" result="hardAlpha"/>
<feOffset dy="4"/>
<feGaussianBlur stdDeviation="5"/>
<feColorMatrix type="matrix" values="0 0 0 0 0 0 0 0 0 0 0 0 0 0 0 0 0 0 0.25 0"/>
<feBlend mode="normal" in2="BackgroundImageFix" result="effect1_dropShadow_1607_6"/>
<feBlend mode="normal" in="SourceGraphic" in2="effect1_dropShadow_1607_6" result="shape"/>
</filter>
</defs>
</svg>
